<svg width="204" height="58" viewBox="0 0 204 58" fill="none" xmlns="http://www.w3.org/2000/svg">
<g filter="url(#filter0_d_48_382)">
<rect x="2" y="2" width="200" height="54" rx="12" fill="#FDFDFD" shape-rendering="crispEdges"/>
<path d="M22.32 35L26.176 23.48H28.16L32.016 35H30.536L26.928 24.312H27.376L23.8 35H22.32ZM24.176 32.304V30.968H30.16V32.304H24.176ZM33.4401 35L33.4481 26.36H34.8881V30.52L38.5121 26.36H40.3601L36.5441 30.68L40.8081 35H38.8161L34.8881 30.84V35H33.4401ZM43.8924 35V27.656H40.8844V26.36H48.3244V27.656H45.3164V35H43.8924ZM56.9108 26.36V35H55.5348V28.632L51.0068 35H49.8308V26.36H51.2068V32.64L55.7428 26.36H56.9108ZM59.1433 35V26.36H62.8233C63.0419 26.36 63.2766 26.3733 63.5273 26.4C63.7833 26.4213 64.0153 26.4613 64.2233 26.52C64.6873 26.6427 65.0686 26.896 65.3673 27.28C65.6713 27.6587 65.8233 28.1387 65.8233 28.72C65.8233 29.0453 65.7726 29.328 65.6713 29.568C65.5753 29.808 65.4366 30.016 65.2553 30.192C65.1753 30.272 65.0873 30.344 64.9913 30.408C64.8953 30.472 64.7993 30.5227 64.7033 30.56C64.8899 30.592 65.0793 30.664 65.2713 30.776C65.5753 30.9413 65.8126 31.1733 65.9833 31.472C66.1593 31.7707 66.2473 32.152 66.2473 32.616C66.2473 33.2027 66.1059 33.688 65.8233 34.072C65.5406 34.4507 65.1513 34.712 64.6553 34.856C64.4473 34.9147 64.2179 34.9547 63.9673 34.976C63.7166 34.992 63.4739 35 63.2393 35H59.1433ZM60.5833 33.84H63.1593C63.2713 33.84 63.4046 33.8293 63.5593 33.808C63.7193 33.7867 63.8606 33.76 63.9833 33.728C64.2606 33.648 64.4606 33.4987 64.5833 33.28C64.7113 33.0613 64.7753 32.824 64.7753 32.568C64.7753 32.2267 64.6793 31.9493 64.4873 31.736C64.3006 31.5227 64.0526 31.3893 63.7433 31.336C63.6313 31.304 63.5086 31.2853 63.3753 31.28C63.2473 31.2747 63.1326 31.272 63.0312 31.272H60.5833V33.84ZM60.5833 30.096H62.7273C62.8766 30.096 63.0339 30.088 63.1993 30.072C63.3646 30.0507 63.5086 30.016 63.6313 29.968C63.8766 29.8773 64.0553 29.728 64.1673 29.52C64.2846 29.3067 64.3433 29.0747 64.3433 28.824C64.3433 28.5467 64.2793 28.304 64.1513 28.096C64.0286 27.8827 63.8393 27.736 63.5833 27.656C63.4126 27.592 63.2206 27.5573 63.0073 27.552C62.7993 27.5413 62.6659 27.536 62.6073 27.536H60.5833V30.096ZM74.9264 26.36V35H73.5504V28.632L69.0224 35H67.8464V26.36H69.2224V32.64L73.7584 26.36H74.9264ZM81.1349 35.24C80.3242 35.24 79.6415 35.04 79.0869 34.64C78.5322 34.2347 78.1109 33.688 77.8229 33C77.5402 32.3067 77.3989 31.5307 77.3989 30.672C77.3989 29.8027 77.5402 29.024 77.8229 28.336C78.1109 27.648 78.5322 27.1067 79.0869 26.712C79.6469 26.3173 80.3322 26.12 81.1429 26.12C81.9429 26.12 82.6309 26.32 83.2069 26.72C83.7882 27.1147 84.2335 27.656 84.5429 28.344C84.8522 29.032 85.0069 29.808 85.0069 30.672C85.0069 31.536 84.8522 32.312 84.5429 33C84.2335 33.688 83.7882 34.2347 83.2069 34.64C82.6309 35.04 81.9402 35.24 81.1349 35.24ZM77.1589 38.84V26.36H78.4309V32.72H78.5909V38.84H77.1589ZM80.9589 33.936C81.5295 33.936 82.0015 33.792 82.3749 33.504C82.7482 33.216 83.0282 32.8267 83.2149 32.336C83.4015 31.84 83.4949 31.2853 83.4949 30.672C83.4949 30.064 83.4015 29.5147 83.2149 29.024C83.0335 28.5333 82.7509 28.144 82.3669 27.856C81.9882 27.568 81.5055 27.424 80.9189 27.424C80.3589 27.424 79.8949 27.5627 79.5269 27.84C79.1589 28.112 78.8842 28.4933 78.7029 28.984C78.5215 29.4693 78.4309 30.032 78.4309 30.672C78.4309 31.3013 78.5189 31.864 78.6949 32.36C78.8762 32.8507 79.1535 33.2373 79.5269 33.52C79.9002 33.7973 80.3775 33.936 80.9589 33.936ZM90.4406 35.24C89.582 35.24 88.8406 35.0453 88.2166 34.656C87.598 34.2667 87.1206 33.728 86.7846 33.04C86.4486 32.352 86.2806 31.5627 86.2806 30.672C86.2806 29.7653 86.4513 28.9707 86.7926 28.288C87.134 27.6053 87.6166 27.0747 88.2406 26.696C88.8646 26.312 89.598 26.12 90.4406 26.12C91.3046 26.12 92.0486 26.3147 92.6726 26.704C93.2966 27.088 93.774 27.624 94.1046 28.312C94.4406 28.9947 94.6086 29.7813 94.6086 30.672C94.6086 31.5733 94.4406 32.368 94.1046 33.056C93.7686 33.7387 93.2886 34.2747 92.6646 34.664C92.0406 35.048 91.2993 35.24 90.4406 35.24ZM90.4406 33.888C91.3366 33.888 92.0033 33.5893 92.4406 32.992C92.878 32.3947 93.0966 31.6213 93.0966 30.672C93.0966 29.696 92.8753 28.92 92.4326 28.344C91.99 27.7627 91.326 27.472 90.4406 27.472C89.838 27.472 89.342 27.608 88.9526 27.88C88.5633 28.152 88.2726 28.528 88.0806 29.008C87.8886 29.488 87.7926 30.0427 87.7926 30.672C87.7926 31.6427 88.0166 32.4213 88.4646 33.008C88.9126 33.5947 89.5713 33.888 90.4406 33.888ZM96.362 35V26.36H100.042C100.261 26.36 100.495 26.3733 100.746 26.4C101.002 26.4213 101.234 26.4613 101.442 26.52C101.906 26.6427 102.287 26.896 102.586 27.28C102.89 27.6587 103.042 28.1387 103.042 28.72C103.042 29.0453 102.991 29.328 102.89 29.568C102.794 29.808 102.655 30.016 102.474 30.192C102.394 30.272 102.306 30.344 102.21 30.408C102.114 30.472 102.018 30.5227 101.922 30.56C102.109 30.592 102.298 30.664 102.49 30.776C102.794 30.9413 103.031 31.1733 103.202 31.472C103.378 31.7707 103.466 32.152 103.466 32.616C103.466 33.2027 103.325 33.688 103.042 34.072C102.759 34.4507 102.37 34.712 101.874 34.856C101.666 34.9147 101.437 34.9547 101.186 34.976C100.935 34.992 100.693 35 100.458 35H96.362ZM97.802 33.84H100.378C100.49 33.84 100.623 33.8293 100.778 33.808C100.938 33.7867 101.079 33.76 101.202 33.728C101.479 33.648 101.679 33.4987 101.802 33.28C101.93 33.0613 101.994 32.824 101.994 32.568C101.994 32.2267 101.898 31.9493 101.706 31.736C101.519 31.5227 101.271 31.3893 100.962 31.336C100.85 31.304 100.727 31.2853 100.594 31.28C100.466 31.2747 100.351 31.272 100.25 31.272H97.802V33.84ZM97.802 30.096H99.946C100.095 30.096 100.253 30.088 100.418 30.072C100.583 30.0507 100.727 30.016 100.85 29.968C101.095 29.8773 101.274 29.728 101.386 29.52C101.503 29.3067 101.562 29.0747 101.562 28.824C101.562 28.5467 101.498 28.304 101.37 28.096C101.247 27.8827 101.058 27.736 100.802 27.656C100.631 27.592 100.439 27.5573 100.226 27.552C100.018 27.5413 99.8847 27.536 99.826 27.536H97.802V30.096ZM107.529 35.24C106.884 35.24 106.342 35.1227 105.905 34.888C105.473 34.648 105.145 34.3333 104.921 33.944C104.702 33.5547 104.593 33.128 104.593 32.664C104.593 32.2107 104.678 31.8187 104.849 31.488C105.025 31.152 105.27 30.8747 105.585 30.656C105.9 30.432 106.276 30.256 106.713 30.128C107.124 30.016 107.582 29.92 108.089 29.84C108.601 29.7547 109.118 29.6773 109.641 29.608C110.164 29.5387 110.652 29.472 111.105 29.408L110.593 29.704C110.609 28.936 110.454 28.368 110.129 28C109.809 27.632 109.254 27.448 108.465 27.448C107.942 27.448 107.484 27.568 107.089 27.808C106.7 28.0427 106.425 28.4267 106.265 28.96L104.913 28.552C105.121 27.7947 105.524 27.2 106.121 26.768C106.718 26.336 107.505 26.12 108.481 26.12C109.265 26.12 109.937 26.2613 110.497 26.544C111.062 26.8213 111.468 27.2427 111.713 27.808C111.836 28.0747 111.913 28.3653 111.945 28.68C111.977 28.9893 111.993 29.3147 111.993 29.656V35H110.729V32.928L111.025 33.12C110.7 33.8187 110.244 34.3467 109.657 34.704C109.076 35.0613 108.366 35.24 107.529 35.24ZM107.745 34.048C108.257 34.048 108.7 33.9573 109.073 33.776C109.452 33.5893 109.756 33.3467 109.985 33.048C110.214 32.744 110.364 32.4133 110.433 32.056C110.513 31.7893 110.556 31.4933 110.561 31.168C110.572 30.8373 110.577 30.584 110.577 30.408L111.073 30.624C110.609 30.688 110.153 30.7493 109.705 30.808C109.257 30.8667 108.833 30.9307 108.433 31C108.033 31.064 107.673 31.1413 107.353 31.232C107.118 31.3067 106.897 31.4027 106.689 31.52C106.486 31.6373 106.321 31.7893 106.193 31.976C106.07 32.1573 106.009 32.384 106.009 32.656C106.009 32.8907 106.068 33.1147 106.185 33.328C106.308 33.5413 106.494 33.7147 106.745 33.848C107.001 33.9813 107.334 34.048 107.745 34.048ZM116.361 35V27.656H113.353V26.36H120.793V27.656H117.785V35H116.361ZM122.308 35L122.3 26.36H123.732V29.488H125.595C125.846 29.488 126.102 29.4933 126.364 29.504C126.625 29.5147 126.852 29.5387 127.044 29.576C127.492 29.6613 127.884 29.8107 128.22 30.024C128.556 30.2373 128.817 30.528 129.004 30.896C129.19 31.2587 129.284 31.7093 129.284 32.248C129.284 32.9947 129.089 33.5867 128.7 34.024C128.316 34.456 127.812 34.744 127.188 34.888C126.974 34.936 126.729 34.968 126.452 34.984C126.18 34.9947 125.921 35 125.676 35H122.308ZM123.732 33.824H125.7C125.86 33.824 126.038 33.8187 126.236 33.808C126.433 33.7973 126.609 33.7707 126.764 33.728C127.036 33.648 127.278 33.4907 127.492 33.256C127.71 33.0213 127.82 32.6853 127.82 32.248C127.82 31.8053 127.713 31.464 127.5 31.224C127.292 30.984 127.017 30.8267 126.676 30.752C126.521 30.7147 126.358 30.6907 126.188 30.68C126.017 30.6693 125.854 30.664 125.7 30.664H123.732V33.824Z" fill="#161616"/>
</g>
<defs>
<filter id="filter0_d_48_382" x="0" y="0" width="204" height="58" filterUnits="userSpaceOnUse" color-interpolation-filters="sRGB">
<feFlood flood-opacity="0" result="BackgroundImageFix"/>
<feColorMatrix in="SourceAlpha" type="matrix" values="0 0 0 0 0 0 0 0 0 0 0 0 0 0 0 0 0 0 127 0" result="hardAlpha"/>
<feOffset/>
<feGaussianBlur stdDeviation="1"/>
<feComposite in2="hardAlpha" operator="out"/>
<feColorMatrix type="matrix" values="0 0 0 0 0.354167 0 0 0 0 0.354167 0 0 0 0 0.354167 0 0 0 1 0"/>
<feBlend mode="normal" in2="BackgroundImageFix" result="effect1_dropShadow_48_382"/>
<feBlend mode="normal" in="SourceGraphic" in2="effect1_dropShadow_48_382" result="shape"/>
</filter>
</defs>
</svg>
